<svg width="256" height="70" viewBox="0 0 256 70" fill="none" xmlns="http://www.w3.org/2000/svg">
<path d="M11.7491 69.7603H0.391637C0.130546 69.7603 0 69.5971 0 69.2708L0.195818 0.391637C0.195818 0.130546 0.326364 0 0.587455 0H62.6293C66.2519 0 69.5808 0.881183 72.616 2.64355C75.6512 4.40592 78.0663 6.77205 79.8613 9.74197C81.6889 12.7119 82.6028 16.0734 82.6028 19.8266C82.6028 22.2743 82.2274 24.4936 81.4768 26.4844C80.7262 28.4753 79.845 30.156 78.8333 31.5268C77.8542 32.8975 76.9567 33.9092 76.1407 34.562C79.7634 38.5762 81.5747 43.2922 81.5747 48.7098L81.6726 69.2708C81.6726 69.5971 81.5094 69.7603 81.1831 69.7603H69.8256C69.5645 69.7603 69.434 69.6624 69.434 69.4666V48.7098C69.434 46.2947 68.5854 44.206 66.8883 42.4436C65.1912 40.6813 63.1025 39.8001 60.6221 39.8001H12.2387L12.1407 69.2708C12.1407 69.5971 12.0102 69.7603 11.7491 69.7603ZM62.6293 11.9939H12.2387V27.7573H62.6293C64.6854 27.7573 66.513 26.9903 68.1122 25.4564C69.744 23.9225 70.5599 22.0459 70.5599 19.8266C70.5599 17.7053 69.7766 15.8776 68.2101 14.3437C66.6436 12.7772 64.7833 11.9939 62.6293 11.9939Z" fill="white"/>
<path d="M86.7639 69.2708L99.1984 0.391637C99.2636 0.130546 99.4268 0 99.6879 0H114.227C114.489 0 114.652 0.130546 114.717 0.391637L126.662 69.2708C126.695 69.5971 126.564 69.7603 126.27 69.7603H115.158C114.831 69.7603 114.652 69.5971 114.619 69.2708L113.542 61.9276H99.8837L98.8067 69.2708C98.7741 69.5971 98.6109 69.7603 98.3172 69.7603H87.1555C86.8944 69.7603 86.7639 69.5971 86.7639 69.2708ZM106.395 23.0576L101.891 51.2065H111.535L107.423 23.0576L106.835 19.3371L106.395 23.0576Z" fill="white"/>
<path d="M154.321 69.7603H143.013C142.719 69.7603 142.572 69.5971 142.572 69.2708V12.0918H129.55C129.224 12.0918 129.061 11.9286 129.061 11.6022L129.159 0.391637C129.159 0.130546 129.289 0 129.55 0H167.637C167.996 0 168.175 0.130546 168.175 0.391637V11.6022C168.175 11.9286 168.045 12.0918 167.784 12.0918H154.615L154.713 69.2708C154.713 69.5971 154.582 69.7603 154.321 69.7603Z" fill="white"/>
<path d="M205.87 69.7603H173.463C173.201 69.7603 173.071 69.5971 173.071 69.2708L173.169 0.391637C173.169 0.130546 173.299 0 173.56 0H205.773C206.034 0 206.164 0.163182 206.164 0.489546V11.7002C206.164 11.9612 206.034 12.0918 205.773 12.0918H185.212V27.7573H205.773C206.034 27.7573 206.164 27.8878 206.164 28.1489L206.262 39.5064C206.262 39.7675 206.132 39.898 205.87 39.898H185.212V57.4238H205.87C206.132 57.4238 206.262 57.5869 206.262 57.9133V69.3687C206.262 69.6298 206.132 69.7603 205.87 69.7603Z" fill="white"/>
<path d="M226.921 69.7603H215.563C215.302 69.7603 215.172 69.5971 215.172 69.2708L215.368 0.391637C215.368 0.130546 215.498 0 215.759 0H236.027C239.649 0 242.978 0.881183 246.013 2.64355C249.048 4.40592 251.464 6.77205 253.259 9.74197C255.086 12.7119 256 16.0734 256 19.8266C256 22.2743 255.625 24.4936 254.874 26.4844C254.123 28.4753 253.242 30.156 252.23 31.5268C251.251 32.8975 250.354 33.9092 249.538 34.562C253.161 38.5762 254.972 43.2922 254.972 48.7098L255.07 69.2708C255.07 69.5971 254.907 69.7603 254.58 69.7603H243.223C242.962 69.7603 242.831 69.6624 242.831 69.4666V48.7098C242.831 46.2947 241.983 44.206 240.286 42.4436C238.588 40.6813 236.5 39.8001 234.019 39.8001H227.411L227.313 69.2708C227.313 69.5971 227.182 69.7603 226.921 69.7603ZM236.027 11.9939H227.411V27.7573H236.027C238.083 27.7573 239.91 26.9903 241.509 25.4564C243.141 23.9225 243.957 22.0459 243.957 19.8266C243.957 17.7053 243.174 15.8776 241.607 14.3437C240.041 12.7772 238.181 11.9939 236.027 11.9939Z" fill="white"/>
</svg>
